<?xml version="1.0" encoding="UTF-8"?>
<svg version="1.1" xmlns="http://www.w3.org/2000/svg" width="93" height="35">
<path d="M0 0 C30.69 0 61.38 0 93 0 C93 11.55 93 23.1 93 35 C62.31 35 31.62 35 0 35 C0 23.45 0 11.9 0 0 Z " fill="#FDFDFE" transform="translate(0,0)"/>
<path d="M0 0 C2.86328125 0.37890625 2.86328125 0.37890625 6.11328125 1.94140625 C7.86328125 4.37890625 7.86328125 4.37890625 8.48828125 7.87890625 C7.86328125 11.37890625 7.86328125 11.37890625 6.11328125 13.81640625 C1.2332108 16.16259397 -3.8228479 16.37297287 -9.13671875 15.37890625 C-12.35852971 12.88321295 -13.05006645 11.98547237 -13.63671875 7.87890625 C-12.47779039 -0.23359229 -7.01376261 -0.26547819 0 0 Z " fill="#0652B2" transform="translate(42.13671875,9.62109375)"/>
<path d="M0 0 C2.31 0 4.62 0 7 0 C7 1.98 7 3.96 7 6 C9.31 6 11.62 6 14 6 C14 4.02 14 2.04 14 0 C16.31 0 18.62 0 21 0 C21 4.95 21 9.9 21 15 C18.69 15 16.38 15 14 15 C14 13.02 14 11.04 14 9 C11.69 9 9.38 9 7 9 C7 10.98 7 12.96 7 15 C4.69 15 2.38 15 0 15 C0 10.05 0 5.1 0 0 Z " fill="#0656B4" transform="translate(52,10)"/>
<path d="M0 0 C5.61 0 11.22 0 17 0 C17 5 17 5 15.46875 6.58203125 C14.49421875 7.19111328 14.49421875 7.19111328 13.5 7.8125 C12.52546875 8.44091797 12.52546875 8.44091797 11.53125 9.08203125 C11.0259375 9.38496094 10.520625 9.68789063 10 10 C12.31 10.33 14.62 10.66 17 11 C17 12.32 17 13.64 17 15 C11.39 15 5.78 15 0 15 C1.22553505 8.87232474 2.27558042 8.51818479 7 5 C4.69 4.67 2.38 4.34 0 4 C0 2.68 0 1.36 0 0 Z " fill="#0551B2" transform="translate(10,10)"/>
<path d="M0 0 C2.31 0 4.62 0 7 0 C7 4.95 7 9.9 7 15 C4.69 15 2.38 15 0 15 C0 10.05 0 5.1 0 0 Z " fill="#0F4EB5" transform="translate(76,10)"/>
<path d="M0 0 C2.5 0.125 2.5 0.125 3.5 1.125 C3.625 3.625 3.625 3.625 3.5 6.125 C2.5 7.125 2.5 7.125 0 7.25 C-2.5 7.125 -2.5 7.125 -3.5 6.125 C-3.625 3.625 -3.625 3.625 -3.5 1.125 C-2.5 0.125 -2.5 0.125 0 0 Z " fill="#F3F8FD" transform="translate(39.5,13.875)"/>
<path d="M0 0 C0.99 0 1.98 0 3 0 C3.66 2.31 4.32 4.62 5 7 C4.34 7 3.68 7 3 7 C2.67 7.99 2.34 8.98 2 10 C2 8.68 2 7.36 2 6 C-0.64 6 -3.28 6 -6 6 C-4 4 -2 2 0 0 Z " fill="#F5E4FC" transform="translate(25,15)"/>
</svg>
